<svg xmlns="http://www.w3.org/2000/svg" viewBox="0 0 112 126" role="img" aria-label="Tiny hand pointer">
  <defs>
    <filter id="shadow" x="-30%" y="-20%" width="170%" height="170%">
      <feDropShadow dx="2" dy="4" stdDeviation="3" flood-color="#090b10" flood-opacity="0.38"/>
    </filter>
    <linearGradient id="skin" x1="0" y1="0" x2="0.8" y2="1">
      <stop offset="0" stop-color="#fff4d6"/>
      <stop offset="1" stop-color="#ffc987"/>
    </linearGradient>
  </defs>

  <g filter="url(#shadow)" stroke="#171922" stroke-width="5" stroke-linecap="round" stroke-linejoin="round">
    <path fill="url(#skin)" d="M55 6c-7.5 0-13.5 6.1-13.5 13.5v47.4l-5.9-8.2c-4.5-6.1-12.9-7.6-18.7-3.2-5.9 4.4-6.8 12.6-2.4 18.8l20.6 29.1c6.5 9.1 17 14.6 28.2 14.6h6.9c19.9 0 36-16.1 36-36V64.8c0-7-5.4-12.8-12.3-13.3-4.5-.3-8.5 1.6-11 4.8v-5.1c0-7.3-5.5-13.4-12.7-13.9-4.9-.3-9.3 2-11.8 5.7V19.5C68.5 12.1 62.5 6 55 6Z"/>
    <path fill="none" d="M58.5 43v28.5M82.9 56.3v17.1M41.5 66.9v12.4M35.4 58.7l10.2 14.1"/>
    <path fill="#ff9f1c" d="M38.4 103.6c7.1 9 16 14.4 27.5 14.4h5.7c10.9 0 20.7-4.9 27.2-12.6-8.9-2.5-18.7-3.8-29.3-3.8-11.4 0-21.8.7-31.1 2Z"/>
    <path fill="none" stroke="#fff4d6" stroke-width="3" d="M49 108.1c11.4-2.1 25.8-1.9 39.3.6" opacity="0.9"/>
  </g>
</svg>

